# xmcd
#
# Track frame offsets:
#	150
#	19933
#	36613
#	52815
#	68220
#	93532
#	112910
#	130308
#	145399
#	169728
#	191796
#
# Disc length: 2698 seconds
#
# Revision: 1
# Processed by: cddbd v1.4PL0 Copyright (c) Steve Scherf et al.
# Submitted via: audiograbber 1.81.02
#
DISCID=a00a880b
DTITLE=The Groove Hogs - Wrong Side of the Street
DYEAR=2002
DGENRE=Blues
TTITLE0=Blues Is My Business
TTITLE1=Baby's Gone
TTITLE2=Love Fever
TTITLE3=Soul Queenie
TTITLE4=Fool
TTITLE5=Positive Trip
TTITLE6=Make Ends Meet
TTITLE7=Listen
TTITLE8=Who Do You Think You're Foolin?
TTITLE9=The Real Love
TTITLE10=Workin' Ev'ryday
EXTD=
EXTT0=
EXTT1=
EXTT2=
EXTT3=
EXTT4=
EXTT5=
EXTT6=
EXTT7=
EXTT8=
EXTT9=
EXTT10=
PLAYORDER=
